<?xml version="1.0" encoding="utf-8"?>
<!-- Generator: Adobe Illustrator 27.5.0, SVG Export Plug-In . SVG Version: 6.00 Build 0)  -->
<svg version="1.1" xmlns="http://www.w3.org/2000/svg" xmlns:xlink="http://www.w3.org/1999/xlink" x="0px" y="0px"
	 viewBox="0 0 3710 3710" style="enable-background:new 0 0 3710 3710;" xml:space="preserve">
<g id="Background">
	<g>
		<g>
			<rect style="fill:#FFFFFF;" width="3710" height="3710"/>
		</g>
	</g>
</g>
<g id="Illustration">
	<g>
		<linearGradient id="SVGID_1_" gradientUnits="userSpaceOnUse" x1="3478.6116" y1="3668.0818" x2="1537.8235" y2="1602.082">
			<stop  offset="0" style="stop-color:#DAE3FE"/>
			<stop  offset="1" style="stop-color:#E9EFFD"/>
		</linearGradient>
		<path style="fill:url(#SVGID_1_);" d="M2895.892,2839.211c-71.646,73.85-135.752,117.262-184.834,150.035
			C2232.37,3308.87,1685.178,3216.747,1516,3185.259c-272.948-50.801-503.354-86.639-701.314-265.488
			c-449.825-406.399-427.946-1254.177-84.225-1779.339c40.755-62.269,383.955-570.999,932.332-642.683
			c13.413-1.753,23.42-2.752,32.185-3.68c84.833-8.982,610.523-56.386,1039.171,302.735
			c61.359,51.406,160.103,144.13,251.671,285.55C3320.634,1599.447,3321.695,2400.31,2895.892,2839.211z"/>
		<g>
			<g>
				<path style="fill:#BDD0FB;" d="M576.764,728.408c3.783-12.633,22.027-11.797,24.581,1.141
					c24.691,125.079,99.709,451.03,240.409,631.948c229.093,294.576,360.798,753.979,181.969,972.457
					C1023.723,2333.955,164.63,2104.874,576.764,728.408z"/>
				<path style="opacity:0.43;fill:#FFFFFF;" d="M587.155,904.924c-0.005,4.024,0.31,7.346,0.493,10.932l0.768,10.562l1.769,21.084
					c1.276,14.043,2.766,28.062,4.257,42.081c3.083,28.026,6.514,56.01,10.202,83.965c7.479,55.893,16.47,111.577,26.298,167.114
					c9.75,55.555,21.054,110.838,33.524,165.858c12.518,55.006,25.819,109.858,40.917,164.242
					c29.979,108.807,65.904,216.087,109.264,320.398c22.225,51.916,45.818,103.279,72.341,153.163
					c26.871,49.675,55.869,98.233,88.277,144.459c0.705,1.005,2.091,1.249,3.096,0.544c0.98-0.687,1.236-2.023,0.595-3.021
					l-0.017-0.025c-30.477-47.277-58.359-96.105-83.786-146.198c-25.57-50.028-48.208-101.498-69.472-153.479
					c-21.242-52.009-40.385-104.864-58.323-158.112c-17.92-53.27-33.627-107.255-49.026-161.312
					c-30.345-108.277-54.894-218.133-76.406-328.552c-10.639-55.239-20.165-110.7-28.706-166.315
					c-4.315-27.802-8.374-55.645-12.087-83.535l-5.241-41.872l-2.405-20.953l-1.085-10.479c-0.3-3.438-0.681-7.129-0.819-10.147
					l-0.023-0.499c-0.056-1.216-1.086-2.156-2.302-2.101C588.078,902.78,587.158,903.757,587.155,904.924z"/>
			</g>
			<g>
				<path style="fill:#91B3FA;" d="M1022.714,483.891c6.915-10.553,23.418-4.809,22.231,7.752
					c-11.479,121.44-31.605,440.818,48.07,645.112c129.729,332.638,125.183,789.863-98.413,941.434
					C994.602,2078.19,269.263,1633.748,1022.714,483.891z"/>
				<path style="opacity:0.43;fill:#FFFFFF;" d="M984.053,648.586c-1.106,3.697-1.722,6.825-2.534,10.164l-2.179,9.896
					l-4.135,19.817c-2.665,13.227-5.125,26.488-7.585,39.751c-4.824,26.541-9.318,53.141-13.567,79.782
					c-8.399,53.298-15.349,106.815-21.495,160.427c-6.223,53.607-10.942,107.389-14.517,161.248
					c-3.529,53.859-6.297,107.792-7.289,161.786c-2.193,107.963,1.495,216.15,12.81,323.641
					c6.227,53.674,13.859,107.214,24.582,160.197c11.104,52.886,24.46,105.326,41.588,156.554c0.38,1.135,1.607,1.747,2.741,1.367
					c1.106-0.37,1.716-1.545,1.395-2.655l-0.009-0.028c-15.033-51.674-27.271-104.057-36.911-156.931
					c-9.792-52.853-16.503-106.227-21.815-159.695c-5.285-53.488-8.421-107.178-10.341-160.901
					c-1.9-53.738-1.571-107.528-0.95-161.3c1.703-107.57,9.163-215.007,19.541-322.135c5.305-53.559,11.693-107.017,19.024-160.349
					c3.622-26.672,7.489-53.314,11.687-79.904l6.607-39.829l3.505-19.872l1.86-9.906c0.661-3.233,1.319-6.725,2.012-9.523
					l0.117-0.473c0.285-1.151-0.417-2.315-1.568-2.6C985.51,646.84,984.38,647.497,984.053,648.586z"/>
			</g>
		</g>
		<g>
			
				<linearGradient id="SVGID_00000005946695286164041830000005458180521452903835_" gradientUnits="userSpaceOnUse" x1="2016.0178" y1="3312.2004" x2="1763.314" y2="1152.4146">
				<stop  offset="0" style="stop-color:#09005D"/>
				<stop  offset="1" style="stop-color:#1A0F91"/>
			</linearGradient>
			<path style="fill:url(#SVGID_00000005946695286164041830000005458180521452903835_);" d="M656.404,2902.416
				c0,23.96,19.623,43.564,43.606,43.564h2358.018c23.983,0,43.606-19.604,43.606-43.564l19.621-1355.088
				c0-23.96-28.229-70.736-79.964-67.221l-2304.515-59.629c-30.092-0.779-59.187,10.804-80.496,32.043
				c-21.309,21.24-32.969,50.28-32.258,80.344L656.404,2902.416z"/>
			
				<linearGradient id="SVGID_00000063615566665889226100000011032326146516999302_" gradientUnits="userSpaceOnUse" x1="1090.8666" y1="2620.313" x2="3483.1582" y2="1286.0229">
				<stop  offset="0" style="stop-color:#FF928E"/>
				<stop  offset="1" style="stop-color:#FE7062"/>
			</linearGradient>
			<path style="fill:url(#SVGID_00000063615566665889226100000011032326146516999302_);" d="M699.455,2860.622
				c0,22.689,18.564,41.254,41.254,41.254h2260.455c22.69,0,41.254-18.565,41.254-41.254l18.515-1230.161
				c-2.181-74.028-67.083-100.634-106.425-99.064l-2208.668-59.255c-21.141-0.567-41.581,7.578-56.554,22.513
				c-14.973,14.935-23.208,35.374-22.678,56.516L699.455,2860.622z"/>
			<g>
				<path style="opacity:0.58;fill:#FFFFFF;" d="M3017.991,2276.209c0,0-0.06,0-0.091,0c-3.34-0.048-6.007-2.794-5.956-6.137
					l1.463-99.764c0.048-3.307,2.746-5.956,6.041-5.956c0.03,0,0.061,0,0.061,0c3.37,0.048,6.038,2.794,5.986,6.137l-1.463,99.764
					C3023.984,2273.56,3021.286,2276.209,3017.991,2276.209z"/>
				<path style="opacity:0.58;fill:#FFFFFF;" d="M3021.582,2031.735c-0.03,0-0.06,0-0.091,0c-3.34-0.048-6.007-2.8-5.956-6.137
					l5.609-382.099c-0.105-22.696-6.994-40.818-20.478-53.738c-25.17-24.114-65.132-22.883-66.815-22.805l-705.939-18.931
					c-3.337-0.084-5.971-2.866-5.881-6.204c0.088-3.337,2.652-6.179,6.207-5.878l705.52,18.931
					c4.39-0.26,46.937-0.996,75.272,26.154c15.94,15.274,24.084,36.316,24.205,62.53l-5.612,382.219
					C3027.574,2029.086,3024.877,2031.735,3021.582,2031.735z"/>
			</g>
			
				<linearGradient id="SVGID_00000074444398145066946050000008847719654002643105_" gradientUnits="userSpaceOnUse" x1="1855.1165" y1="1941.321" x2="1855.1165" y2="2547.8145">
				<stop  offset="0" style="stop-color:#09005D"/>
				<stop  offset="1" style="stop-color:#1A0F91"/>
			</linearGradient>
			<path style="fill:url(#SVGID_00000074444398145066946050000008847719654002643105_);" d="M470.765,3058.469h2768.703
				c3.11,0,5.654-2.544,5.654-5.654v-107.756c0-3.109-2.544-5.654-5.654-5.654H470.765c-3.109,0-5.654,2.544-5.654,5.654v107.755
				C465.112,3055.924,467.656,3058.469,470.765,3058.469z"/>
		</g>
		<g>
			<path style="fill:#BDD0FB;" d="M2484.154,761.48L1029.5,752.574c-47.806-0.293-86.041,39.639-83.673,87.388l100.076,2066.716
				h1618.759l89.88-1846.5L2484.154,761.48z"/>
			<path style="fill:#7D97F4;" d="M2544.641,1051.325c-47.385-1.667-83.814-42.507-80.08-89.774l15.594-197.348l274.671,294.763
				L2544.641,1051.325z"/>
			<g>
				<g>
					<path style="opacity:0.78;fill:#FFFFFF;" d="M1187.15,1155.22c201.665-1.906,975.817-10.039,1171.304-12.097
						c24.658-0.26,44.829,14.814,44.573,33.271l0,0c-0.243,17.569-19.011,31.735-42.48,32.062l-1170.608,16.341
						c-22.548,0.315-41.843-12.283-44.512-29.063l-0.675-4.245C1141.7,1172.303,1161.363,1155.464,1187.15,1155.22z"/>
					<path style="opacity:0.78;fill:#FFFFFF;" d="M1171.652,1360.3L1171.652,1360.3c3.363,4.343,9.572,7.016,16.254,7l803.674-1.96
						c10.095-0.025,18.249-6.083,18.353-13.639l0.548-39.643c0.109-7.877-8.545-14.299-19.066-14.15l-781.39,11.063
						C1175.223,1309.463,1154.131,1337.676,1171.652,1360.3z"/>
				</g>
				<g>
					<path style="opacity:0.61;fill:#FFFFFF;" d="M2440.445,2481.931H1259.629c-26.893,0-49.081-24.313-50.496-55.333
						l-37.482-821.696c-1.524-33.418,21.524-61.479,50.496-61.479h1238.746c28.496,0,51.364,27.184,50.545,60.084l-20.448,821.696
						C2490.204,2456.793,2467.806,2481.931,2440.445,2481.931z"/>
					<path style="fill:#FFFFFF;" d="M2440.446,2486.984H1259.63c-29.607,0-54.006-26.422-55.542-60.156l-37.481-821.695
						c-0.869-18.986,5.676-37.248,17.953-50.097c10.27-10.75,23.619-16.669,37.59-16.669h1238.745
						c13.757,0,26.958,5.765,37.166,16.232c12.178,12.484,18.897,30.358,18.433,49.034l-20.447,821.695
						C2495.183,2459.9,2470.761,2486.984,2440.446,2486.984z M1222.149,1548.475c-11.184,0-21.938,4.811-30.282,13.543
						c-10.378,10.865-15.906,26.412-15.166,42.654l37.481,821.695c1.293,28.321,21.256,50.508,45.448,50.508h1180.817
						c24.787,0,44.77-22.753,45.49-51.798l20.447-821.695c0.398-15.972-5.274-31.18-15.56-41.726
						c-8.292-8.499-18.92-13.182-29.93-13.182H1222.149z"/>
					<rect x="1178.409" y="1724.438" style="fill:#FFFFFF;" width="1334.286" height="10.108"/>
					<rect x="1185.147" y="1926.603" style="fill:#FFFFFF;" width="1317.439" height="10.108"/>
					<rect x="1198.625" y="2148.984" style="fill:#FFFFFF;" width="1303.961" height="10.108"/>
					
						<rect x="1205.523" y="2336.705" transform="matrix(1 -0.0098 0.0098 1 -22.7765 18.1689)" style="fill:#FFFFFF;" width="1287.734" height="10.109"/>
					<rect x="1545.674" y="1542.49" style="fill:#FFFFFF;" width="10.108" height="936.695"/>
				</g>
				
					<linearGradient id="SVGID_00000020395222804311993670000000503968654752936087_" gradientUnits="userSpaceOnUse" x1="2282.4243" y1="1995.3639" x2="2236.9397" y2="2313.7568">
					<stop  offset="0" style="stop-color:#09005D"/>
					<stop  offset="1" style="stop-color:#1A0F91"/>
				</linearGradient>
				<path style="fill:url(#SVGID_00000020395222804311993670000000503968654752936087_);" d="M1877.526,2753.804
					c4.54-57.946,24.183-114.758,55.033-164.586c15.499-24.891,33.72-48.199,54.589-68.983c5.35-5.053,10.57-10.258,16.049-15.182
					c5.637-4.743,11.142-9.66,16.911-14.252c5.9-4.427,11.735-8.957,17.796-13.167l9.248-6.099l4.627-3.046l2.314-1.522
					c0.837-0.524,1.967-1.192,2.969-1.727c16.252-8.971,39.577-9.388,55.332,6.438c3.837,3.799,6.51,8.37,8.499,12.858
					c0.903,2.258,1.787,4.541,2.312,6.768c0.68,2.265,1.041,4.451,1.421,6.652c1.391,8.776,0.991,16.932,0.178,24.813
					c-0.415,3.936-1.056,7.797-1.745,11.561l-2.113,10.627c-1.352,7.096-2.936,14.144-4.486,21.199
					c-3.117,14.106-6.646,28.116-10.352,42.076c-15.081,55.771-35.051,110.217-59.749,162.425l-9.458,19.482
					c-3.31,6.416-6.538,12.873-9.917,19.251l-5.125,9.537l-2.563,4.769l-2.823,4.976c-3.906,6.622-8.269,13.049-13.35,19.164
					c-5.103,6.088-10.875,11.945-18.071,16.866c-7.128,4.865-16.118,8.816-26.091,9.301c-2.471,0.254-4.938-0.009-7.402-0.273
					c-2.501-0.132-4.789-0.943-7.161-1.501c-4.715-1.272-9.18-3.558-13.103-6.334c-7.905-5.604-13.581-13.362-17.099-21.723
					c-3.393-8.258-4.882-16.88-4.942-25.257c-0.102-8.379,1.155-16.358,2.874-23.885c1.757-7.549,3.937-14.61,6.346-21.522
					l3.548-10.429l3.997-10.261c10.717-27.344,24.899-53.211,41.467-77.335c16.507-24.191,36.001-46.252,57.462-66.094l4.011-3.736
					l4.18-3.55l8.372-7.076c2.849-2.287,5.777-4.478,8.661-6.719c2.906-2.214,5.745-4.513,8.782-6.55
					c5.99-4.185,11.915-8.455,18.17-12.24l4.63-2.924l2.315-1.461c0.412-0.253,0.712-0.465,1.217-0.752l1.527-0.853
					c4.12-2.168,8.626-3.617,13.282-4.107c9.265-1.093,19.272,1.665,26.479,8.24c3.711,3.273,6.687,7.963,8.04,12.787
					c1.427,4.848,1.377,9.503,0.962,13.698c-0.447,4.215-1.346,8.071-2.309,11.706l-2.902,10.388l-5.781,20.584
					c-7.646,27.462-15.6,54.842-23.394,82.265l-0.018,0.063l-12.037-2.151c0.896-9.228,3.38-18.548,8.474-26.916
					c2.594-4.152,5.758-8.001,9.742-11.201c3.982-3.257,8.604-5.531,13.475-6.975c4.894-1.371,10.126-1.866,15.365-1
					c2.607,0.426,5.217,1.156,7.675,2.312c1.253,0.52,2.417,1.238,3.588,1.932l2.427,1.526c5.892,3.315,13.245,3.939,19.288,1.276
					c1.529-0.609,2.93-1.482,4.258-2.444c0.631-0.528,1.308-1,1.872-1.611l0.915-0.888l1.096-1.17l8.772-9.356l17.543-18.712
					l17.543-18.712l8.772-9.356c2.156-2.271,5.246-4.267,8.687-4.956c3.437-0.731,7.004-0.243,10.04,1.136
					c3.045,1.378,5.675,3.629,7.47,6.573c1.801,2.931,2.583,6.615,2.175,9.983c-0.044,0.87-0.234,1.667-0.457,2.456
					c-0.199,0.75-0.478,1.729-0.626,2.087l-1.051,2.953l-1.99,5.944c-2.577,7.95-4.752,16.031-6.573,24.187
					c-1.804,8.161-3.236,16.404-4.265,24.697c-0.115,1.02-0.273,2.111-0.354,3.073l-0.076,2.533
					c-0.107,0.854,0.047,1.67,0.162,2.489c0.158,0.806,0.085,1.673,0.395,2.439c0.698,3.225,2.413,6.11,4.519,8.632
					c2.106,2.566,5.028,4.444,8.094,5.745c1.52,0.745,3.182,1.026,4.798,1.448c1.658,0.142,3.311,0.396,4.958,0.189
					c3.266-0.26,6.525-1.109,9.305-2.97l1.086-0.61l0.974-0.813l1.982-1.613l4.531-4.438c12.067-11.852,23.616-24.235,34.572-37.124
					c21.88-25.804,41.465-53.555,58.417-82.829l6.214-11.059l3-5.588l1.5-2.794l0.375-0.699c0.021-0.079-0.016-0.038,0.002-0.051
					c0.052-0.015-0.05,0.074-0.013,0.143c-0.017,0.471,0.189,0.564,0.137,0.521c0,0,0.089,0.062,0.28,0.041
					c0.185-0.04,0.437-0.087,0.436-0.124c0,0,0.006-0.004-0.026-0.003l-0.54,0.548l-1.08,1.096c-0.727,0.724-1.432,1.469-2.13,2.222
					c-1.417,1.485-2.771,3.029-4.125,4.571c-5.359,6.223-10.233,12.875-14.53,19.887c-2.147,3.507-4.159,7.096-6.034,10.757
					c-0.924,1.837-1.831,3.682-2.685,5.553l-1.259,2.815l-0.62,1.412l-0.408,1.265c-2.435,6.624-2.476,13.931,0.551,20.215
					c2.954,6.24,8.344,11.549,14.902,13.924c3.2,1.422,6.695,1.71,10.113,1.805c3.414-0.329,6.873-0.875,10.045-2.504l2.413-1.105
					l2.716-1.579c1.806-1.067,3.642-2.082,5.417-3.201c3.593-2.167,7.13-4.421,10.636-6.724
					c28.003-18.493,53.086-41.413,73.939-67.675l0.01-0.013c2.107-2.653,5.966-3.096,8.62-0.99s3.097,5.966,0.99,8.619
					c-21.683,27.308-47.724,51.096-76.795,70.296c-3.64,2.391-7.313,4.732-11.043,6.981c-1.843,1.161-3.748,2.217-5.624,3.324
					l-2.827,1.643l-3.399,1.605c-4.492,2.233-9.61,3.209-14.68,3.586c-5.085-0.034-10.269-0.624-14.957-2.625
					c-9.554-3.551-17.282-11.042-21.615-20.224c-4.451-9.195-4.423-20.339-0.908-29.644l0.611-1.775l0.668-1.524l1.359-3.038
					c0.923-2.019,1.9-4.01,2.898-5.992c2.021-3.95,4.194-7.823,6.511-11.608c4.639-7.568,9.902-14.755,15.701-21.488
					c1.465-1.67,2.932-3.339,4.466-4.949c0.756-0.815,1.52-1.622,2.307-2.407l1.17-1.188l0.585-0.594
					c0.376-0.343,0.795-0.697,1.208-1.026c1.692-1.295,3.978-2.301,6.323-2.377c2.326-0.12,4.552,0.47,6.424,1.513
					c3.691,2.009,6.455,6.325,6.085,11.104c-0.116,1.11-0.326,2.296-0.738,3.247c-0.189,0.479-0.421,1.018-0.618,1.426l-0.384,0.714
					l-1.533,2.856l-3.067,5.712l-6.352,11.302c-17.324,29.918-37.334,58.271-59.691,84.636
					c-11.194,13.17-22.994,25.823-35.325,37.934l-4.631,4.535l-2.967,2.463l-1.514,1.208l-1.687,1
					c-4.387,2.85-9.654,4.349-14.853,4.726c-2.629,0.272-5.228-0.033-7.823-0.333c-2.533-0.575-5.095-1.118-7.459-2.213
					c-4.76-2.008-9.212-4.953-12.602-8.973c-3.384-3.962-6.074-8.689-7.234-13.855c-0.427-1.256-0.436-2.58-0.653-3.872
					c-0.173-1.301-0.354-2.602-0.247-3.89l0.144-3.876l0.38-3.295c1.077-8.678,2.575-17.3,4.462-25.836
					c1.903-8.532,4.179-16.982,6.874-25.299l2.081-6.217l1.099-3.089c0.247-0.637,0.193-0.707,0.284-0.985
					c0.082-0.239,0.162-0.475,0.134-0.683c0.104-0.867-0.044-1.591-0.469-2.323c-0.434-0.718-1.189-1.379-2.038-1.753
					c-1.822-0.715-3.166-0.458-4.712,1.035l-8.772,9.356l-17.543,18.712l-17.543,18.712l-8.771,9.356l-1.096,1.169l-1.376,1.355
					c-0.91,0.943-1.966,1.736-2.99,2.56c-2.117,1.556-4.39,2.932-6.829,3.927c-9.725,4.238-21.156,3.196-30.127-1.885l-3.008-1.875
					c-0.678-0.378-1.321-0.813-2.055-1.098c-1.407-0.677-2.958-1.106-4.561-1.369c-3.212-0.545-6.689-0.242-10.018,0.687
					c-6.746,1.9-12.28,6.488-16.141,12.808c-3.835,6.274-5.969,13.877-6.706,21.627l-12.038-2.151l0.016-0.063
					c6.897-27.662,13.634-55.367,20.678-82.99l5.238-20.729l2.583-10.275c0.779-3.27,1.386-6.403,1.608-9.287
					c0.216-2.873,0.073-5.496-0.623-7.481c-0.679-2.007-1.701-3.531-3.356-4.949c-3.461-2.989-8.435-4.308-13.279-3.592
					c-2.427,0.312-4.808,1.171-6.952,2.373l-0.794,0.472l-1.037,0.683l-2.167,1.451l-4.333,2.9
					c-5.855,3.748-11.385,7.971-16.975,12.094c-2.838,2.005-5.479,4.271-8.185,6.448c-2.685,2.204-5.413,4.353-8.063,6.596
					l-7.775,6.935l-3.894,3.456l-3.751,3.613c-20.073,19.172-38.24,40.394-53.499,63.562c-15.32,23.1-28.333,47.759-38.004,73.676
					l-3.611,9.718l-3.175,9.864c-2.186,6.578-4.087,13.192-5.454,19.553c-2.819,12.731-2.914,24.951,1.415,34.901
					c2.078,4.717,5.301,8.781,9.118,11.352c1.914,1.286,3.903,2.299,6.098,2.787c2.218,0.566,4.367,0.911,6.541,0.689
					c4.31-0.243,8.941-2.045,13.522-5.213c4.572-3.16,8.937-7.532,12.923-12.393c3.992-4.882,7.633-10.305,10.917-15.985
					l2.414-4.342l2.459-4.668l4.918-9.335c3.241-6.243,6.333-12.563,9.508-18.838l9.059-19.057
					c23.522-51.109,42.885-104.138,57.427-158.475c3.569-13.6,6.968-27.246,9.963-40.983c1.489-6.87,3.014-13.732,4.309-20.642
					l2.029-10.346c0.582-3.247,1.101-6.423,1.421-9.576c0.648-6.263,0.835-12.496-0.071-17.813c-0.886-5.341-2.621-9.632-5.09-12.03
					c-1.139-1.364-2.708-2.213-4.454-3.123c-1.97-0.715-3.958-1.472-6.158-1.562c-4.32-0.387-9.095,0.628-13.362,2.917
					c-0.57,0.302-0.979,0.537-1.654,0.951l-2.158,1.405l-4.317,2.807l-8.641,5.607c-5.684,3.855-11.08,8.126-16.693,12.096
					c-5.463,4.171-10.683,8.664-16.048,12.976c-5.21,4.496-10.182,9.272-15.296,13.891c-19.814,19.158-37.755,40.376-53.175,63.384
					c-30.973,45.929-52.288,98.61-61.73,153.909c-0.564,3.344-3.733,5.598-7.077,5.033
					C1879.476,2759.807,1877.297,2756.927,1877.526,2753.804z"/>
				
					<linearGradient id="SVGID_00000145752958494315789100000007521950269723523458_" gradientUnits="userSpaceOnUse" x1="2233.3828" y1="3068.7256" x2="2924.8113" y2="1905.5732">
					<stop  offset="0" style="stop-color:#09005D"/>
					<stop  offset="1" style="stop-color:#1A0F91"/>
				</linearGradient>
				<path style="fill:url(#SVGID_00000145752958494315789100000007521950269723523458_);" d="M2515.882,2567.287
					c-2.043,0-4.04-1.02-5.205-2.879c-1.799-2.871-0.93-6.658,1.941-8.457l61.288-38.393c2.87-1.8,6.658-0.932,8.455,1.943
					c1.799,2.871,0.929,6.656-1.943,8.455l-61.286,38.393C2518.121,2566.985,2516.995,2567.287,2515.882,2567.287z"/>
			</g>
		</g>
		<g>
			
				<linearGradient id="SVGID_00000098929771206269772500000012283194480915349432_" gradientUnits="userSpaceOnUse" x1="804.8075" y1="2554.668" x2="1484.0715" y2="2554.668">
				<stop  offset="0" style="stop-color:#4F52FF"/>
				<stop  offset="1" style="stop-color:#4042E2"/>
			</linearGradient>
			<path style="fill:url(#SVGID_00000098929771206269772500000012283194480915349432_);" d="M1467.314,2843.097h-645.75
				c-9.255,0-16.757-7.502-16.757-16.757v-560.1h679.264v560.1C1484.072,2835.594,1476.569,2843.097,1467.314,2843.097z"/>
			<path style="fill:#7D97F4;" d="M1467.314,2771.793h-645.75c-9.255,0-16.757-7.502-16.757-16.757v-490.338h679.264v490.338
				C1484.072,2764.29,1476.569,2771.793,1467.314,2771.793z"/>
			<g>
				
					<linearGradient id="SVGID_00000008828756697511775620000016573788965887033484_" gradientUnits="userSpaceOnUse" x1="859.288" y1="2277.8774" x2="911.514" y2="1868.4946">
					<stop  offset="0" style="stop-color:#4F52FF"/>
					<stop  offset="1" style="stop-color:#4042E2"/>
				</linearGradient>
				
					<rect x="843.912" y="2286.871" style="fill:url(#SVGID_00000008828756697511775620000016573788965887033484_);" width="23.386" height="39.756"/>
				
					<linearGradient id="SVGID_00000181805782972868380780000017626316913069256881_" gradientUnits="userSpaceOnUse" x1="911.064" y1="2284.4827" x2="963.29" y2="1875.0999">
					<stop  offset="0" style="stop-color:#4F52FF"/>
					<stop  offset="1" style="stop-color:#4042E2"/>
				</linearGradient>
				
					<rect x="896.53" y="2286.871" style="fill:url(#SVGID_00000181805782972868380780000017626316913069256881_);" width="23.386" height="39.756"/>
				
					<linearGradient id="SVGID_00000046323251524028153150000005407602474206888334_" gradientUnits="userSpaceOnUse" x1="956.7994" y1="2290.3171" x2="1009.0255" y2="1880.9342">
					<stop  offset="0" style="stop-color:#4F52FF"/>
					<stop  offset="1" style="stop-color:#4042E2"/>
				</linearGradient>
				
					<rect x="943.01" y="2286.871" style="fill:url(#SVGID_00000046323251524028153150000005407602474206888334_);" width="23.386" height="39.756"/>
				
					<linearGradient id="SVGID_00000029039247126961735700000010505860509104834750_" gradientUnits="userSpaceOnUse" x1="1008.5754" y1="2296.9221" x2="1060.8014" y2="1887.5394">
					<stop  offset="0" style="stop-color:#4F52FF"/>
					<stop  offset="1" style="stop-color:#4042E2"/>
				</linearGradient>
				
					<rect x="995.629" y="2286.871" style="fill:url(#SVGID_00000029039247126961735700000010505860509104834750_);" width="23.386" height="39.756"/>
				
					<linearGradient id="SVGID_00000075878658734980319640000004150772216143599235_" gradientUnits="userSpaceOnUse" x1="1054.3108" y1="2302.7568" x2="1106.5369" y2="1893.374">
					<stop  offset="0" style="stop-color:#4F52FF"/>
					<stop  offset="1" style="stop-color:#4042E2"/>
				</linearGradient>
				
					<rect x="1042.109" y="2286.871" style="fill:url(#SVGID_00000075878658734980319640000004150772216143599235_);" width="23.386" height="39.756"/>
				
					<linearGradient id="SVGID_00000158001214423941807380000013509970277803058580_" gradientUnits="userSpaceOnUse" x1="1106.0867" y1="2309.3618" x2="1158.3127" y2="1899.979">
					<stop  offset="0" style="stop-color:#4F52FF"/>
					<stop  offset="1" style="stop-color:#4042E2"/>
				</linearGradient>
				
					<rect x="1094.727" y="2286.871" style="fill:url(#SVGID_00000158001214423941807380000013509970277803058580_);" width="23.386" height="39.756"/>
				
					<linearGradient id="SVGID_00000075847078517125006450000015650511461657453975_" gradientUnits="userSpaceOnUse" x1="1151.8221" y1="2315.1965" x2="1204.0481" y2="1905.8137">
					<stop  offset="0" style="stop-color:#4F52FF"/>
					<stop  offset="1" style="stop-color:#4042E2"/>
				</linearGradient>
				
					<rect x="1141.207" y="2286.871" style="fill:url(#SVGID_00000075847078517125006450000015650511461657453975_);" width="23.386" height="39.756"/>
				
					<linearGradient id="SVGID_00000019637148427332502370000006161931119547003285_" gradientUnits="userSpaceOnUse" x1="1203.5981" y1="2321.8015" x2="1255.8241" y2="1912.4189">
					<stop  offset="0" style="stop-color:#4F52FF"/>
					<stop  offset="1" style="stop-color:#4042E2"/>
				</linearGradient>
				
					<rect x="1193.825" y="2286.871" style="fill:url(#SVGID_00000019637148427332502370000006161931119547003285_);" width="23.386" height="39.756"/>
				
					<linearGradient id="SVGID_00000044898390321508036910000011039509486495392416_" gradientUnits="userSpaceOnUse" x1="1249.3335" y1="2327.6362" x2="1301.5596" y2="1918.2533">
					<stop  offset="0" style="stop-color:#4F52FF"/>
					<stop  offset="1" style="stop-color:#4042E2"/>
				</linearGradient>
				
					<rect x="1240.305" y="2286.871" style="fill:url(#SVGID_00000044898390321508036910000011039509486495392416_);" width="23.386" height="39.756"/>
				
					<linearGradient id="SVGID_00000170984330828041606600000003877338766224976270_" gradientUnits="userSpaceOnUse" x1="1301.1095" y1="2334.2412" x2="1353.3354" y2="1924.8586">
					<stop  offset="0" style="stop-color:#4F52FF"/>
					<stop  offset="1" style="stop-color:#4042E2"/>
				</linearGradient>
				
					<rect x="1292.924" y="2286.871" style="fill:url(#SVGID_00000170984330828041606600000003877338766224976270_);" width="23.386" height="39.756"/>
				
					<linearGradient id="SVGID_00000029744015621627501810000000785884212980064190_" gradientUnits="userSpaceOnUse" x1="1346.845" y1="2340.0759" x2="1399.0709" y2="1930.6931">
					<stop  offset="0" style="stop-color:#4F52FF"/>
					<stop  offset="1" style="stop-color:#4042E2"/>
				</linearGradient>
				
					<rect x="1339.403" y="2286.871" style="fill:url(#SVGID_00000029744015621627501810000000785884212980064190_);" width="23.386" height="39.756"/>
				
					<linearGradient id="SVGID_00000088120354234202019940000017193460268627058085_" gradientUnits="userSpaceOnUse" x1="1398.6208" y1="2346.6812" x2="1450.8468" y2="1937.2982">
					<stop  offset="0" style="stop-color:#4F52FF"/>
					<stop  offset="1" style="stop-color:#4042E2"/>
				</linearGradient>
				
					<rect x="1392.022" y="2286.871" style="fill:url(#SVGID_00000088120354234202019940000017193460268627058085_);" width="23.386" height="39.756"/>
			</g>
			<g>
				<g>
					<rect x="1107.122" y="2347.199" style="fill:#FFFFFF;" width="70.585" height="70.585"/>
					<rect x="1192.907" y="2347.199" style="fill:#FFFFFF;" width="70.585" height="70.585"/>
					<rect x="1277.819" y="2347.199" style="fill:#FFFFFF;" width="70.585" height="70.585"/>
					<rect x="1362.032" y="2347.199" style="fill:#FFFFFF;" width="70.585" height="70.585"/>
				</g>
				<g>
					<rect x="852.298" y="2435.955" style="fill:#FFFFFF;" width="70.585" height="70.585"/>
					<rect x="937.21" y="2435.955" style="fill:#FFFFFF;" width="70.585" height="70.585"/>
					<rect x="1021.423" y="2435.955" style="fill:#FFFFFF;" width="70.585" height="70.585"/>
					<rect x="1107.034" y="2435.955" style="fill:#FFFFFF;" width="70.585" height="70.585"/>
					<rect x="1192.82" y="2435.955" style="fill:#FFFFFF;" width="70.585" height="70.585"/>
					<rect x="1277.732" y="2435.955" style="fill:#FFFFFF;" width="70.585" height="70.585"/>
					<rect x="1361.945" y="2435.955" style="fill:#FFFFFF;" width="70.585" height="70.585"/>
				</g>
				<g>
					<rect x="854.395" y="2520.518" style="fill:#FFFFFF;" width="70.585" height="70.585"/>
					<rect x="939.307" y="2520.518" style="fill:#FFFFFF;" width="70.585" height="70.585"/>
					
						<linearGradient id="SVGID_00000123406875969507017820000004718216374235822766_" gradientUnits="userSpaceOnUse" x1="1176.6639" y1="2301.4993" x2="1080.6356" y2="2508.7183">
						<stop  offset="0" style="stop-color:#FF928E"/>
						<stop  offset="1" style="stop-color:#FE7062"/>
					</linearGradient>
					
						<rect x="1023.52" y="2520.518" style="fill:url(#SVGID_00000123406875969507017820000004718216374235822766_);" width="70.585" height="70.585"/>
					<rect x="1109.131" y="2520.518" style="fill:#FFFFFF;" width="70.585" height="70.585"/>
					<rect x="1194.916" y="2520.518" style="fill:#FFFFFF;" width="70.585" height="70.585"/>
					<rect x="1279.828" y="2520.518" style="fill:#FFFFFF;" width="70.585" height="70.585"/>
					<rect x="1364.042" y="2520.518" style="fill:#FFFFFF;" width="70.585" height="70.585"/>
				</g>
				<g>
					<rect x="856.491" y="2604.032" style="fill:#FFFFFF;" width="70.585" height="70.585"/>
					<rect x="941.403" y="2604.032" style="fill:#FFFFFF;" width="70.585" height="70.585"/>
					<rect x="1025.616" y="2604.032" style="fill:#FFFFFF;" width="70.585" height="70.585"/>
					<rect x="1111.227" y="2604.032" style="fill:#FFFFFF;" width="70.585" height="70.585"/>
					<rect x="1197.013" y="2604.032" style="fill:#FFFFFF;" width="70.585" height="70.585"/>
					<rect x="1281.925" y="2604.032" style="fill:#FFFFFF;" width="70.585" height="70.585"/>
					<rect x="1366.138" y="2604.032" style="fill:#FFFFFF;" width="70.585" height="70.585"/>
				</g>
				<g>
					<rect x="856.491" y="2687.358" style="fill:#FFFFFF;" width="70.585" height="70.585"/>
					<rect x="941.403" y="2687.358" style="fill:#FFFFFF;" width="70.585" height="70.585"/>
					<rect x="1025.616" y="2687.358" style="fill:#FFFFFF;" width="70.585" height="70.585"/>
				</g>
			</g>
			<g>
				
					<linearGradient id="SVGID_00000003793117867185309060000018407558679734180480_" gradientUnits="userSpaceOnUse" x1="892.3582" y1="2051.7571" x2="832.8986" y2="2785.0859">
					<stop  offset="0" style="stop-color:#4F52FF"/>
					<stop  offset="1" style="stop-color:#4042E2"/>
				</linearGradient>
				<path style="fill:url(#SVGID_00000003793117867185309060000018407558679734180480_);" d="M890.085,2255.226h-30.026
					c-6.913,0-12.569,5.656-12.569,12.569v27.931h9.078v-18.155c0-6.913,5.656-12.569,12.569-12.569h30.026
					c1.129,0,2.219,0.165,3.263,0.448C901.317,2259.648,896.196,2255.226,890.085,2255.226z"/>
				
					<linearGradient id="SVGID_00000161623113178155918450000016562287373592217008_" gradientUnits="userSpaceOnUse" x1="950.3104" y1="2056.4558" x2="890.8508" y2="2789.7847">
					<stop  offset="0" style="stop-color:#4F52FF"/>
					<stop  offset="1" style="stop-color:#4042E2"/>
				</linearGradient>
				<path style="fill:url(#SVGID_00000161623113178155918450000016562287373592217008_);" d="M948.418,2255.226h-30.026
					c-6.913,0-12.569,5.656-12.569,12.569v27.931h9.078v-18.155c0-6.913,5.656-12.569,12.569-12.569h30.026
					c1.129,0,2.219,0.165,3.263,0.448C959.651,2259.648,954.529,2255.226,948.418,2255.226z"/>
				
					<linearGradient id="SVGID_00000049208795489116062660000016082545887353712529_" gradientUnits="userSpaceOnUse" x1="998.4771" y1="2060.3616" x2="939.0175" y2="2793.6904">
					<stop  offset="0" style="stop-color:#4F52FF"/>
					<stop  offset="1" style="stop-color:#4042E2"/>
				</linearGradient>
				<path style="fill:url(#SVGID_00000049208795489116062660000016082545887353712529_);" d="M996.901,2255.226h-30.026
					c-6.913,0-12.569,5.656-12.569,12.569v27.931h9.078v-18.155c0-6.913,5.656-12.569,12.569-12.569h30.027
					c1.129,0,2.219,0.165,3.262,0.448C1008.134,2259.648,1003.012,2255.226,996.901,2255.226z"/>
				
					<linearGradient id="SVGID_00000123433799893028257300000013925267140486207367_" gradientUnits="userSpaceOnUse" x1="1048.0977" y1="2064.385" x2="988.6381" y2="2797.7136">
					<stop  offset="0" style="stop-color:#4F52FF"/>
					<stop  offset="1" style="stop-color:#4042E2"/>
				</linearGradient>
				<path style="fill:url(#SVGID_00000123433799893028257300000013925267140486207367_);" d="M1046.848,2255.226h-30.026
					c-6.913,0-12.569,5.656-12.569,12.569v27.931h9.078v-18.155c0-6.913,5.656-12.569,12.569-12.569h30.027
					c1.129,0,2.219,0.165,3.262,0.448C1058.081,2259.648,1052.959,2255.226,1046.848,2255.226z"/>
				
					<linearGradient id="SVGID_00000104697728501747893420000018441165740518438814_" gradientUnits="userSpaceOnUse" x1="1093.9696" y1="2068.104" x2="1034.51" y2="2801.4329">
					<stop  offset="0" style="stop-color:#4F52FF"/>
					<stop  offset="1" style="stop-color:#4042E2"/>
				</linearGradient>
				<path style="fill:url(#SVGID_00000104697728501747893420000018441165740518438814_);" d="M1093.021,2255.226h-30.026
					c-6.913,0-12.569,5.656-12.569,12.569v27.931h9.078v-18.155c0-6.913,5.656-12.569,12.569-12.569h30.027
					c1.129,0,2.219,0.165,3.263,0.448C1104.254,2259.648,1099.133,2255.226,1093.021,2255.226z"/>
				
					<linearGradient id="SVGID_00000180350853606319146750000010476578023340421513_" gradientUnits="userSpaceOnUse" x1="1143.5901" y1="2072.1272" x2="1084.1306" y2="2805.4561">
					<stop  offset="0" style="stop-color:#4F52FF"/>
					<stop  offset="1" style="stop-color:#4042E2"/>
				</linearGradient>
				<path style="fill:url(#SVGID_00000180350853606319146750000010476578023340421513_);" d="M1142.968,2255.226h-30.026
					c-6.913,0-12.569,5.656-12.569,12.569v27.931h9.077v-18.155c0-6.913,5.656-12.569,12.569-12.569h30.026
					c1.129,0,2.219,0.165,3.263,0.448C1154.201,2259.648,1149.079,2255.226,1142.968,2255.226z"/>
				
					<linearGradient id="SVGID_00000001653306820674242370000004390651006257139072_" gradientUnits="userSpaceOnUse" x1="1191.7568" y1="2076.0327" x2="1132.2972" y2="2809.3613">
					<stop  offset="0" style="stop-color:#4F52FF"/>
					<stop  offset="1" style="stop-color:#4042E2"/>
				</linearGradient>
				<path style="fill:url(#SVGID_00000001653306820674242370000004390651006257139072_);" d="M1191.452,2255.226h-30.026
					c-6.913,0-12.569,5.656-12.569,12.569v27.931h9.078v-18.155c0-6.913,5.656-12.569,12.569-12.569h30.026
					c1.129,0,2.219,0.165,3.262,0.448C1202.684,2259.648,1197.563,2255.226,1191.452,2255.226z"/>
				
					<linearGradient id="SVGID_00000087383645412850730250000003728474253917148851_" gradientUnits="userSpaceOnUse" x1="1245.5432" y1="2080.3938" x2="1186.0836" y2="2813.7227">
					<stop  offset="0" style="stop-color:#4F52FF"/>
					<stop  offset="1" style="stop-color:#4042E2"/>
				</linearGradient>
				<path style="fill:url(#SVGID_00000087383645412850730250000003728474253917148851_);" d="M1245.592,2255.226h-30.026
					c-6.913,0-12.569,5.656-12.569,12.569v27.931h9.078v-18.155c0-6.913,5.656-12.569,12.569-12.569h30.027
					c1.129,0,2.219,0.165,3.262,0.448C1256.824,2259.648,1251.703,2255.226,1245.592,2255.226z"/>
				
					<linearGradient id="SVGID_00000113325977431122819540000005682041661471210164_" gradientUnits="userSpaceOnUse" x1="1291.8866" y1="2084.1514" x2="1232.427" y2="2817.4802">
					<stop  offset="0" style="stop-color:#4F52FF"/>
					<stop  offset="1" style="stop-color:#4042E2"/>
				</linearGradient>
				<path style="fill:url(#SVGID_00000113325977431122819540000005682041661471210164_);" d="M1292.276,2254.779h-30.026
					c-6.913,0-12.569,5.656-12.569,12.569v27.931h9.078v-18.155c0-6.913,5.656-12.569,12.569-12.569h30.027
					c1.129,0,2.219,0.165,3.263,0.448C1303.509,2259.201,1298.387,2254.779,1292.276,2254.779z"/>
				
					<linearGradient id="SVGID_00000176043778599330682990000010882498733067612051_" gradientUnits="userSpaceOnUse" x1="1340.0532" y1="2088.0569" x2="1280.5938" y2="2821.3855">
					<stop  offset="0" style="stop-color:#4F52FF"/>
					<stop  offset="1" style="stop-color:#4042E2"/>
				</linearGradient>
				<path style="fill:url(#SVGID_00000176043778599330682990000010882498733067612051_);" d="M1340.759,2254.779h-30.026
					c-6.913,0-12.569,5.656-12.569,12.569v27.931h9.078v-18.155c0-6.913,5.656-12.569,12.569-12.569h30.026
					c1.129,0,2.219,0.165,3.263,0.448C1351.992,2259.201,1346.87,2254.779,1340.759,2254.779z"/>
				
					<linearGradient id="SVGID_00000069376593532815718320000015165512157271062933_" gradientUnits="userSpaceOnUse" x1="1435.5371" y1="2095.7986" x2="1376.0775" y2="2829.1274">
					<stop  offset="0" style="stop-color:#4F52FF"/>
					<stop  offset="1" style="stop-color:#4042E2"/>
				</linearGradient>
				<path style="fill:url(#SVGID_00000069376593532815718320000015165512157271062933_);" d="M1436.779,2255.914h-30.026
					c-6.913,0-12.569,5.656-12.569,12.569v27.931h9.078v-18.155c0-6.913,5.656-12.569,12.569-12.569h30.027
					c1.129,0,2.219,0.165,3.262,0.448C1448.011,2260.336,1442.89,2255.914,1436.779,2255.914z"/>
				
					<linearGradient id="SVGID_00000168107809537722053170000010389991414677214655_" gradientUnits="userSpaceOnUse" x1="1393.8396" y1="2092.418" x2="1334.3801" y2="2825.7468">
					<stop  offset="0" style="stop-color:#4F52FF"/>
					<stop  offset="1" style="stop-color:#4042E2"/>
				</linearGradient>
				<path style="fill:url(#SVGID_00000168107809537722053170000010389991414677214655_);" d="M1394.899,2254.779h-30.026
					c-6.913,0-12.569,5.656-12.569,12.569v27.931h9.078v-18.155c0-6.913,5.656-12.569,12.569-12.569h30.026
					c1.129,0,2.219,0.165,3.263,0.448C1406.132,2259.201,1401.01,2254.779,1394.899,2254.779z"/>
			</g>
		</g>
		<g>
			<g>
				<g>
					<g>
						
							<linearGradient id="SVGID_00000183239561394283753950000013715681916635065986_" gradientUnits="userSpaceOnUse" x1="671.7943" y1="1387.9673" x2="1830.3662" y2="1387.9673">
							<stop  offset="0" style="stop-color:#4F52FF"/>
							<stop  offset="1" style="stop-color:#4042E2"/>
						</linearGradient>
						<polygon style="fill:url(#SVGID_00000183239561394283753950000013715681916635065986_);" points="1830.366,889.303 
							1260.658,2152.262 671.794,1886.631 1241.502,623.673 						"/>
						<path style="opacity:0.5;fill:#FFFFFF;" d="M1334.17,749.398l336.942,151.991c-12.233,27.119,2.285,61.096,32.315,74.642
							c0.954,0.43,3.252,1.421,3.273,1.373l-459.847,1019.414c0.021-0.048-2.238-1.124-3.192-1.554
							c-30.03-13.547-64.515-2.634-76.953,24.939c-0.183,0.405-0.597,0.823-0.597,0.823l-329.357-148.569
							c20.971-46.49-7.928-64.75-37.958-78.296c-0.954-0.431-1.319-0.107-1.34-0.06l459.848-1019.415
							c-0.021,0.048,0.144,0.168,1.097,0.598C1288.432,788.831,1321.937,776.517,1334.17,749.398z"/>
						<g>
							
								<linearGradient id="SVGID_00000106147144009470486740000006937813599298537359_" gradientUnits="userSpaceOnUse" x1="3518.0347" y1="3794.5474" x2="3378.7576" y2="5586.5835" gradientTransform="matrix(0.4112 -0.9116 0.9116 0.4112 -3782.1177 2964.2207)">
								<stop  offset="0" style="stop-color:#50E7B7"/>
								<stop  offset="0.9964" style="stop-color:#323992"/>
							</linearGradient>
							
								<circle style="fill:url(#SVGID_00000106147144009470486740000006937813599298537359_);" cx="1249.76" cy="1386.631" r="203.232"/>
							<g>
								<path style="fill:#FFFFFF;" d="M1366.278,1461.73l-19.589-8.836c-10.029,20.052-23.96,38.077-36.711,49.589
									c-4.553,4.112-11.48,4.13-16.212,0.224l-16.001-13.207c-5.87-4.845-6.049-13.687-0.481-18.875
									c12.385-11.54,25.031-26.982,33.578-45.929c8.873-19.669,8.821-37.345-4.848-43.511
									c-12.334-5.564-24.78,2.463-44.445,26.491c-28.262,34.193-57.897,54.527-92.235,39.037
									c-31.005-13.986-44.447-47.333-33.036-89.527l-19.591-8.837c-6.304-2.843-9.108-10.259-6.265-16.562l5.192-11.51
									c2.843-6.304,10.258-9.108,16.562-6.265l17.59,7.934c9.28-18.555,18.717-30.852,27.477-40.038
									c4.487-4.706,11.89-5.045,16.912-0.913l14.81,12.189c5.712,4.7,6.139,13.263,0.909,18.494
									c-8.334,8.336-18.702,20.76-27.033,39.23c-10.527,23.337-3.867,34.364,4.801,38.273
									c10.668,4.813,24.317-5.881,47.337-32.006c32.551-37.474,58.673-47.354,91.01-32.767
									c29.67,13.383,46.415,47.416,33.835,93.095l21.923,9.889c6.304,2.843,9.109,10.259,6.266,16.563l-5.193,11.511
									C1379.997,1461.769,1372.582,1464.574,1366.278,1461.73z"/>
							</g>
						</g>
					</g>
					<path style="fill:#91B3FA;" d="M833.864,1922.434c-0.319,0-0.645-0.066-0.954-0.207l-110.411-49.807
						c-1.171-0.526-1.691-1.902-1.162-3.07l140.679-311.864c0.523-1.168,1.899-1.698,3.07-1.161c1.171,0.526,1.691,1.902,1.161,3.07
						l-139.722,309.749l108.292,48.853c1.171,0.526,1.691,1.902,1.161,3.07C835.594,1921.924,834.749,1922.434,833.864,1922.434z"/>
					<path style="fill:#FFFFFF;" d="M1641.903,1221.567c-0.319,0-0.645-0.066-0.954-0.207c-1.172-0.526-1.691-1.902-1.161-3.07
						l137.975-305.876l-116.041-52.348c-1.171-0.527-1.691-1.902-1.162-3.07c0.526-1.171,1.905-1.698,3.07-1.161l118.16,53.302
						c1.171,0.527,1.691,1.902,1.162,3.07l-138.932,307.992C1643.634,1221.057,1642.788,1221.567,1641.903,1221.567z"/>
				</g>
				<g>
					<g>
						
							<rect x="532.997" y="1000.128" transform="matrix(0.4112 -0.9115 0.9115 0.4112 -486.3012 1897.6563)" style="fill:#7D97F4;" width="1385.508" height="650.254"/>
						<path style="fill:#91B3FA;" d="M1308.074,686.339l336.942,151.991c-12.233,27.119,3.709,61.546,33.74,75.093
							c0.953,0.43,0.802,0.124,4.698,1.824l-459.848,1019.415c-3.853-1.796-3.59-1.735-4.544-2.165
							c-30.03-13.546-65.264-2.779-77.702,24.794c-0.183,0.405-1.345,0.677-1.345,0.677l-329.358-148.57
							c20.971-46.489-8.439-65.173-38.47-78.719c-0.954-0.431-1.831-0.532-1.853-0.484l459.848-1019.414
							c-0.021,0.048,0.656,0.592,1.61,1.021C1261.823,725.349,1295.841,713.458,1308.074,686.339z"/>
						<g>
							
								<linearGradient id="SVGID_00000112617577218286896740000015889802300858885015_" gradientUnits="userSpaceOnUse" x1="3565.1338" y1="3744.833" x2="3425.8564" y2="5536.8711" gradientTransform="matrix(0.4112 -0.9116 0.9116 0.4112 -3782.1177 2964.2207)">
								<stop  offset="0" style="stop-color:#50E7B7"/>
								<stop  offset="0.9964" style="stop-color:#323992"/>
							</linearGradient>
							
								<circle style="fill:url(#SVGID_00000112617577218286896740000015889802300858885015_);" cx="1223.808" cy="1323.252" r="203.232"/>
							<g>
								<path style="fill:#FFFFFF;" d="M1340.325,1398.352l-19.589-8.836c-10.03,20.052-23.961,38.076-36.712,49.589
									c-4.553,4.111-11.48,4.129-16.211,0.224l-16.002-13.207c-5.87-4.845-6.048-13.687-0.48-18.875
									c12.385-11.54,25.031-26.982,33.578-45.929c8.872-19.669,8.821-37.345-4.848-43.511
									c-12.334-5.564-24.78,2.462-44.445,26.491c-28.262,34.193-57.897,54.527-92.234,39.037
									c-31.005-13.986-44.448-47.333-33.036-89.527l-19.591-8.838c-6.304-2.843-9.108-10.259-6.265-16.562l5.192-11.509
									c2.844-6.304,10.258-9.108,16.562-6.265l17.589,7.934c9.28-18.555,18.716-30.853,27.476-40.038
									c4.487-4.706,11.891-5.044,16.912-0.912l14.811,12.189c5.711,4.7,6.138,13.263,0.909,18.494
									c-8.334,8.335-18.701,20.76-27.033,39.229c-10.527,23.337-3.867,34.364,4.801,38.274
									c10.668,4.812,24.317-5.882,47.337-32.006c32.552-37.474,58.673-47.355,91.011-32.768
									c29.669,13.384,46.415,47.416,33.835,93.095l21.922,9.889c6.303,2.844,9.108,10.26,6.265,16.563l-5.192,11.51
									C1354.044,1398.39,1346.629,1401.195,1340.325,1398.352z"/>
							</g>
						</g>
					</g>
					<path style="fill:#BDD0FB;" d="M812.219,1856.72c-0.319,0-0.645-0.066-0.954-0.207l-114.284-51.555
						c-1.171-0.526-1.691-1.902-1.161-3.07l138.929-307.992c0.523-1.171,1.902-1.698,3.07-1.161c1.171,0.526,1.691,1.902,1.162,3.07
						l-137.971,305.876l112.164,50.6c1.171,0.526,1.691,1.902,1.161,3.07C813.95,1856.21,813.104,1856.72,812.219,1856.72z"/>
					<path style="fill:#FFFFFF;" d="M1614.639,1157.983c-0.319,0-0.645-0.066-0.954-0.207c-1.171-0.526-1.691-1.902-1.162-3.07
						l137.971-305.876l-112.168-50.6c-1.171-0.526-1.691-1.902-1.162-3.07c0.523-1.168,1.895-1.701,3.07-1.161l114.287,51.555
						c1.171,0.526,1.691,1.902,1.161,3.07l-138.929,307.992C1616.369,1157.473,1615.524,1157.983,1614.639,1157.983z"/>
				</g>
				<g>
					<g>
						<g>
							
								<linearGradient id="SVGID_00000094602389485746193500000005602597813213440660_" gradientUnits="userSpaceOnUse" x1="1681.7927" y1="788.7299" x2="2485.3562" y2="-19.8872">
								<stop  offset="0" style="stop-color:#4F52FF"/>
								<stop  offset="1" style="stop-color:#4042E2"/>
							</linearGradient>
							<polygon style="fill:url(#SVGID_00000094602389485746193500000005602597813213440660_);" points="1908.754,969.669 
								984.748,2002.067 500.218,1568.407 1424.224,536.01 							"/>
							<path style="fill:#91B3FA;" d="M1476.097,685.103l275.431,246.513c-19.84,22.168-15.468,59.826,9.081,81.796
								c0.78,0.698,0.28,0.385,3.482,3.18l-745.824,833.314c-3.132-2.874-2.664-2.526-3.444-3.224
								c-24.548-21.971-61.059-22.458-81.232,0.082c-0.297,0.331-1.158,0.11-1.158,0.11l-269.231-240.964
								c34.013-38.002,11.158-64.66-13.391-86.631c-0.78-0.698-2.032-1.034-2.068-0.995l745.824-833.314
								c-0.035,0.039,0.894,0.737,1.674,1.435C1419.79,708.376,1456.257,707.271,1476.097,685.103z"/>
							<g>
								
									<linearGradient id="SVGID_00000058553528840427900820000016698896247790025111_" gradientUnits="userSpaceOnUse" x1="1206.405" y1="1225.8019" x2="1251.3301" y2="626.0491">
									<stop  offset="0" style="stop-color:#4F52FF"/>
									<stop  offset="1" style="stop-color:#4042E2"/>
								</linearGradient>
								
									<circle style="fill:url(#SVGID_00000058553528840427900820000016698896247790025111_);" cx="1203.286" cy="1267.436" r="203.232"/>
								<g>
									<path style="fill:#BDD0FB;" d="M1291.753,1374.172l-16.013-14.331c-15.609,16.095-34.326,29.08-49.955,36.212
										c-5.581,2.547-12.191,0.475-15.524-4.675l-11.275-17.417c-4.137-6.389-1.641-14.874,5.234-18.142
										c15.289-7.268,32.001-18.178,45.864-33.667c14.39-16.078,19.671-32.947,8.497-42.948
										c-10.082-9.023-24.369-5.124-50.364,11.857c-37.257,24.079-71.644,34.531-99.713,9.409
										c-25.345-22.684-28.107-58.533-4.504-95.321l-16.015-14.334c-5.153-4.612-5.591-12.528-0.979-17.68l8.42-9.408
										c4.612-5.153,12.528-5.591,17.68-0.979l14.378,12.868c14.443-14.893,27.149-23.773,38.27-29.89
										c5.698-3.134,12.858-1.225,16.4,4.23l10.446,16.087c4.029,6.203,1.854,14.496-4.71,17.907
										c-10.459,5.435-24.09,14.154-37.603,29.253c-17.073,19.076-14.048,31.599-6.963,37.94
										c8.72,7.805,24.959,1.724,54.785-16.244c42.335-25.915,70.221-27.46,96.655-3.801c24.254,21.707,29.958,59.204,4.19,98.965
										l17.921,16.039c5.153,4.612,5.591,12.528,0.979,17.681l-8.421,9.41C1304.822,1378.345,1296.906,1378.784,1291.753,1374.172
										z"/>
								</g>
							</g>
						</g>
						<path style="fill:#BDD0FB;" d="M647.819,1654.352c-0.553,0-1.106-0.194-1.55-0.592l-93.422-83.613
							c-0.954-0.855-1.036-2.323-0.181-3.281l228.166-254.933c0.856-0.958,2.323-1.04,3.281-0.181
							c0.954,0.856,1.036,2.323,0.181,3.281l-226.616,253.203l91.691,82.063c0.954,0.855,1.036,2.323,0.181,3.281
							C649.092,1654.092,648.457,1654.352,647.819,1654.352z"/>
						<path style="fill:#BDD0FB;" d="M1626.408,1226.917c-0.553,0-1.106-0.194-1.55-0.592c-0.954-0.856-1.036-2.323-0.181-3.281
							l223.783-250.037l-91.691-82.064c-0.954-0.855-1.036-2.323-0.181-3.281c0.852-0.958,2.323-1.04,3.281-0.181l93.422,83.613
							c0.954,0.855,1.036,2.323,0.181,3.28l-225.332,251.768C1627.682,1226.657,1627.047,1226.917,1626.408,1226.917z"/>
					</g>
					<g>
						
							<linearGradient id="SVGID_00000074403038570421995820000015301074868338420156_" gradientUnits="userSpaceOnUse" x1="3520.6208" y1="-10714.499" x2="3543.083" y2="-11183.9639" gradientTransform="matrix(0.6669 -0.7451 0.7451 0.6669 -3204.5532 1723.4207)">
							<stop  offset="0" style="stop-color:#4F52FF"/>
							<stop  offset="1" style="stop-color:#4042E2"/>
						</linearGradient>
						<path style="fill:url(#SVGID_00000074403038570421995820000015301074868338420156_);" d="M978.87,1546.384
							c23.691,21.204,25.707,57.598,4.504,81.289c-21.203,23.691-57.597,25.707-81.288,4.503
							c-23.691-21.203-25.708-57.598-4.504-81.289C918.785,1527.197,955.179,1525.181,978.87,1546.384z"/>
						
							<linearGradient id="SVGID_00000153684287903732030440000018157269738896456115_" gradientUnits="userSpaceOnUse" x1="4384.8047" y1="-10673.1475" x2="4407.2666" y2="-11142.6123" gradientTransform="matrix(0.6669 -0.7451 0.7451 0.6669 -3204.5532 1723.4207)">
							<stop  offset="0" style="stop-color:#4F52FF"/>
							<stop  offset="1" style="stop-color:#4042E2"/>
						</linearGradient>
						<path style="fill:url(#SVGID_00000153684287903732030440000018157269738896456115_);" d="M1556.5,900.993
							c23.691,21.204,25.708,57.598,4.504,81.289c-21.204,23.691-57.598,25.707-81.289,4.504
							c-23.691-21.203-25.707-57.598-4.504-81.289C1496.416,881.807,1532.81,879.79,1556.5,900.993z"/>
					</g>
				</g>
			</g>
			<g>
				<g>
					
						<linearGradient id="SVGID_00000072244765011959982740000001659782193266946473_" gradientUnits="userSpaceOnUse" x1="1572.6052" y1="2368.1865" x2="1804.8943" y2="2098.5659" gradientTransform="matrix(0.9782 -0.2079 0.2079 0.9782 -1049.0583 114.5421)">
						<stop  offset="0" style="stop-color:#E1473D"/>
						<stop  offset="1" style="stop-color:#E9605A"/>
					</linearGradient>
					
						<circle style="fill:url(#SVGID_00000072244765011959982740000001659782193266946473_);" cx="1156.238" cy="1785.819" r="173.188"/>
					
						<linearGradient id="SVGID_00000023271064603823612380000012198893448068386976_" gradientUnits="userSpaceOnUse" x1="1264.1621" y1="1434.0687" x2="1082.214" y2="2027.0833">
						<stop  offset="0" style="stop-color:#FF928E"/>
						<stop  offset="1" style="stop-color:#FE7062"/>
					</linearGradient>
					
						<circle style="fill:url(#SVGID_00000023271064603823612380000012198893448068386976_);" cx="1156.238" cy="1785.819" r="167.43"/>
					<path style="opacity:0.58;fill:#FFFFFF;" d="M1007.895,1751.963c-0.829,0.176-1.711,0.168-2.588-0.065
						c-2.991-0.79-4.774-3.855-3.983-6.84c15.531-58.848,62.136-103.253,121.625-115.894c9.494-2.017,19.182-3.182,28.796-3.464
						c3.088-0.091,5.668,2.34,5.759,5.429c0.093,3.094-2.321,5.692-5.433,5.76c-8.94,0.268-17.956,1.351-26.794,3.229
						c-55.331,11.758-98.678,53.061-113.128,107.794C1011.592,1750.026,1009.898,1751.538,1007.895,1751.963z"/>
					
						<ellipse transform="matrix(0.7071 -0.7071 0.7071 0.7071 -924.8303 1344.5208)" style="opacity:0.78;fill:#FFFFFF;" cx="1160.565" cy="1788.629" rx="141.709" ry="141.709"/>
					<g>
						
							<linearGradient id="SVGID_00000081627792194029306890000007942102156982486933_" gradientUnits="userSpaceOnUse" x1="2896.0618" y1="-1375.564" x2="2801.7219" y2="-1072.329" gradientTransform="matrix(0.9782 -0.2079 0.2079 0.9782 -1049.0583 114.5421)">
							<stop  offset="0" style="stop-color:#FF928E"/>
							<stop  offset="1" style="stop-color:#FE7062"/>
						</linearGradient>
						<path style="fill:url(#SVGID_00000081627792194029306890000007942102156982486933_);" d="M1168.86,1894.567l-3.205-15.08
							c-15.854,2.711-32.193,2.305-44.264-0.183c-4.311-0.888-7.261-4.887-7.011-9.28l0.846-14.862
							c0.31-5.452,5.348-9.308,10.713-8.29c11.932,2.265,26.23,3.023,40.817-0.076c15.142-3.218,25.343-10.75,23.107-21.273
							c-2.018-9.495-11.943-13.286-34.188-14.46c-31.772-1.832-56.112-10.34-61.729-36.775c-5.072-23.869,8.509-45.799,37.756-57.11
							l-3.205-15.082c-1.031-4.853,2.066-9.623,6.919-10.654l8.86-1.883c4.853-1.031,9.623,2.067,10.654,6.92l2.877,13.541
							c14.671-2.509,25.788-2.272,34.819-1.105c4.627,0.598,7.965,4.736,7.707,9.395l-0.763,13.74
							c-0.294,5.298-5.065,9.18-10.31,8.376c-8.359-1.282-19.946-2.004-34.164,1.018c-17.966,3.818-21.516,12.351-20.098,19.024
							c1.745,8.212,13.723,11.568,38.606,13.792c35.491,2.919,52.294,13.833,57.584,38.727c4.854,22.842-7.722,46.973-39.482,59.087
							l3.586,16.877c1.031,4.853-2.066,9.622-6.919,10.654l-8.861,1.883C1174.661,1902.517,1169.891,1899.42,1168.86,1894.567z"/>
					</g>
				</g>
				<g>
					
						<linearGradient id="SVGID_00000157284266091208294110000018344340230513743755_" gradientUnits="userSpaceOnUse" x1="1890.0109" y1="2366.6094" x2="2294.3855" y2="1897.2465" gradientTransform="matrix(0.9782 -0.2079 0.2079 0.9782 -1049.0583 114.5421)">
						<stop  offset="0" style="stop-color:#E1473D"/>
						<stop  offset="1" style="stop-color:#E9605A"/>
					</linearGradient>
					
						<circle style="fill:url(#SVGID_00000157284266091208294110000018344340230513743755_);" cx="1595.766" cy="1482.454" r="301.491"/>
					
						<linearGradient id="SVGID_00000124125579709247547760000014050933652182728893_" gradientUnits="userSpaceOnUse" x1="1836.1318" y1="830.2866" x2="1377.8918" y2="2073.5962">
						<stop  offset="0" style="stop-color:#FF928E"/>
						<stop  offset="1" style="stop-color:#FE7062"/>
					</linearGradient>
					
						<circle style="fill:url(#SVGID_00000124125579709247547760000014050933652182728893_);" cx="1595.766" cy="1482.454" r="291.466"/>
					<path style="opacity:0.58;fill:#FFFFFF;" d="M1336.668,1419.458c-0.829,0.176-1.711,0.168-2.588-0.065
						c-2.991-0.79-4.775-3.854-3.983-6.84c26.638-100.92,106.56-177.079,208.581-198.758c16.281-3.46,32.897-5.459,49.387-5.933
						c3.091-0.093,5.67,2.339,5.761,5.434c0.089,3.089-2.333,5.7-5.435,5.755c-15.819,0.461-31.763,2.378-47.386,5.698
						c-97.862,20.795-174.528,93.854-200.083,190.659C1340.365,1417.521,1338.671,1419.033,1336.668,1419.458z"/>
					
						<ellipse transform="matrix(0.7071 -0.7071 0.7071 0.7071 -582.1168 1569.3363)" style="opacity:0.78;fill:#FFFFFF;" cx="1603.298" cy="1487.345" rx="246.69" ry="246.69"/>
					<g>
						
							<linearGradient id="SVGID_00000175320471500512871450000013894352730658050220_" gradientUnits="userSpaceOnUse" x1="3021.6216" y1="-1946.6348" x2="2923.9131" y2="-1417.6594" gradientTransform="matrix(0.9782 -0.2079 0.2079 0.9782 -1049.0583 114.5421)">
							<stop  offset="0" style="stop-color:#FF928E"/>
							<stop  offset="1" style="stop-color:#FE7062"/>
						</linearGradient>
						<path style="fill:url(#SVGID_00000175320471500512871450000013894352730658050220_);" d="M1617.737,1671.765l-5.578-26.252
							c-27.6,4.72-56.042,4.013-77.056-0.318c-7.504-1.546-12.641-8.507-12.205-16.157l1.473-25.87
							c0.54-9.49,9.31-16.204,18.65-14.431c20.77,3.943,45.663,5.263,71.055-0.133c26.36-5.601,44.119-18.716,40.226-37.033
							c-3.513-16.53-20.791-23.13-59.516-25.173c-55.309-3.189-97.682-18.001-107.46-64.018
							c-8.83-41.552,14.812-79.728,65.726-99.418l-5.579-26.255c-1.795-8.448,3.598-16.752,12.046-18.547l15.425-3.278
							c8.449-1.795,16.752,3.598,18.547,12.046l5.009,23.572c25.539-4.367,44.893-3.954,60.614-1.922
							c8.055,1.04,13.866,8.244,13.416,16.354l-1.328,23.919c-0.512,9.223-8.817,15.98-17.948,14.581
							c-14.551-2.231-34.721-3.488-59.474,1.772c-31.275,6.646-37.455,21.5-34.986,33.117c3.038,14.296,23.89,20.137,67.204,24.009
							c61.784,5.081,91.035,24.081,100.244,67.418c8.449,39.763-13.442,81.771-68.73,102.859l6.243,29.38
							c1.795,8.449-3.598,16.752-12.046,18.547l-15.426,3.278C1627.837,1685.606,1619.533,1680.213,1617.737,1671.765z"/>
					</g>
				</g>
				<g>
					
						<linearGradient id="SVGID_00000161602216605743236620000000727608401089817986_" gradientUnits="userSpaceOnUse" x1="2085.9458" y1="3053.8611" x2="2502.0427" y2="2570.8923" gradientTransform="matrix(0.9782 -0.2079 0.2079 0.9782 -1049.0583 114.5421)">
						<stop  offset="0" style="stop-color:#E1473D"/>
						<stop  offset="1" style="stop-color:#E9605A"/>
					</linearGradient>
					
						<circle style="fill:url(#SVGID_00000161602216605743236620000000727608401089817986_);" cx="1939.122" cy="2097.924" r="310.231"/>
					
						<linearGradient id="SVGID_00000181782348648980185640000008841196577881008025_" gradientUnits="userSpaceOnUse" x1="2158.2922" y1="1493.609" x2="1811.2439" y2="2450.5186">
						<stop  offset="0" style="stop-color:#FF928E"/>
						<stop  offset="1" style="stop-color:#FE7062"/>
					</linearGradient>
					
						<circle style="fill:url(#SVGID_00000181782348648980185640000008841196577881008025_);" cx="1939.121" cy="2097.924" r="299.915"/>
					<path style="opacity:0.58;fill:#FFFFFF;" d="M1672.479,2032.944c-0.829,0.176-1.711,0.168-2.588-0.065
						c-2.991-0.79-4.774-3.854-3.983-6.84c27.392-103.786,109.584-182.104,214.503-204.399c16.741-3.557,33.829-5.612,50.791-6.103
						c3.091-0.093,5.671,2.339,5.761,5.433c0.089,3.089-2.317,5.68-5.435,5.755c-16.291,0.477-32.707,2.45-48.789,5.868
						c-100.76,21.411-179.696,96.629-206.006,196.299C1676.177,2031.007,1674.482,2032.519,1672.479,2032.944z"/>
					
						<ellipse transform="matrix(0.7071 -0.7071 0.7071 0.7071 -916.7903 1992.5884)" style="opacity:0.78;fill:#FFFFFF;" cx="1946.872" cy="2102.958" rx="253.841" ry="253.841"/>
					<g>
						
							<linearGradient id="SVGID_00000029037737944917871780000012848869620951386512_" gradientUnits="userSpaceOnUse" x1="3510.0188" y1="-1133.608" x2="3392.0945" y2="-692.2335" gradientTransform="matrix(0.9782 -0.2079 0.2079 0.9782 -1049.0583 114.5421)">
							<stop  offset="0" style="stop-color:#FF928E"/>
							<stop  offset="1" style="stop-color:#FE7062"/>
						</linearGradient>
						<path style="fill:url(#SVGID_00000029037737944917871780000012848869620951386512_);" d="M1961.73,2292.723l-5.74-27.014
							c-28.401,4.856-57.667,4.129-79.29-0.327c-7.721-1.591-13.007-8.754-12.559-16.625l1.516-26.62
							c0.556-9.766,9.58-16.674,19.19-14.849c21.373,4.056,46.987,5.416,73.115-0.136c27.124-5.764,45.397-19.258,41.392-38.107
							c-3.614-17.008-21.393-23.8-61.24-25.903c-56.913-3.281-100.514-18.522-110.576-65.874
							c-9.086-42.756,15.242-82.039,67.632-102.3l-5.741-27.016c-1.847-8.693,3.703-17.237,12.395-19.084l15.871-3.373
							c8.693-1.847,17.237,3.702,19.084,12.395l5.154,24.256c26.28-4.495,46.195-4.069,62.372-1.978
							c8.288,1.07,14.268,8.483,13.805,16.828l-1.366,24.612c-0.526,9.491-9.073,16.445-18.468,15.004
							c-14.973-2.297-35.727-3.59-61.198,1.823c-32.182,6.839-38.542,22.123-36.002,34.077
							c3.126,14.711,24.583,20.721,69.153,24.705c63.575,5.229,93.674,24.779,103.15,69.373
							c8.694,40.915-13.831,84.141-70.721,105.841l6.424,30.231c1.847,8.693-3.702,17.238-12.395,19.085l-15.874,3.373
							C1972.122,2306.966,1963.578,2301.416,1961.73,2292.723z"/>
					</g>
				</g>
				<g>
					
						<linearGradient id="SVGID_00000108281724301012810610000012458693080344611508_" gradientUnits="userSpaceOnUse" x1="2597.3979" y1="2499.5916" x2="2902.269" y2="2145.7236" gradientTransform="matrix(0.9782 -0.2079 0.2079 0.9782 -1049.0583 114.5421)">
						<stop  offset="0" style="stop-color:#E1473D"/>
						<stop  offset="1" style="stop-color:#E9605A"/>
					</linearGradient>
					
						<circle style="fill:url(#SVGID_00000108281724301012810610000012458693080344611508_);" cx="2240.575" cy="1601.835" r="227.304"/>
					
						<linearGradient id="SVGID_00000001622472814495474740000000075440295355426703_" gradientUnits="userSpaceOnUse" x1="2407.3608" y1="958.5189" x2="2171.502" y2="1868.2572">
						<stop  offset="0" style="stop-color:#FF928E"/>
						<stop  offset="1" style="stop-color:#FE7062"/>
					</linearGradient>
					
						<circle style="fill:url(#SVGID_00000001622472814495474740000000075440295355426703_);" cx="2240.574" cy="1601.835" r="219.745"/>
					<path style="opacity:0.58;fill:#FFFFFF;" d="M2045.517,1555.688c-0.829,0.176-1.711,0.168-2.588-0.065
						c-2.99-0.79-4.774-3.854-3.983-6.84c20.216-76.592,80.875-134.392,158.3-150.844c12.339-2.622,24.949-4.139,37.483-4.505
						c3.088-0.092,5.668,2.339,5.759,5.428c0.089,3.089-2.309,5.706-5.433,5.761c-11.86,0.351-23.798,1.787-35.481,4.27
						c-73.266,15.569-130.669,70.268-149.803,142.744C2049.214,1553.75,2047.52,1555.262,2045.517,1555.688z"/>
					
						<ellipse transform="matrix(0.7071 -0.7071 0.7071 0.7071 -477.3641 2058.5879)" style="opacity:0.78;fill:#FFFFFF;" cx="2246.253" cy="1605.524" rx="185.987" ry="185.988"/>
					<g>
						
							<linearGradient id="SVGID_00000143616067911739130250000012909103628240754840_" gradientUnits="userSpaceOnUse" x1="2374.5989" y1="1124.208" x2="2290.3635" y2="1451.0415">
							<stop  offset="0" style="stop-color:#FF928E"/>
							<stop  offset="1" style="stop-color:#FE7062"/>
						</linearGradient>
						<path style="fill:url(#SVGID_00000143616067911739130250000012909103628240754840_);" d="M2257.14,1744.563l-4.206-19.792
							c-20.809,3.558-42.252,3.026-58.095-0.24c-5.657-1.166-9.53-6.414-9.202-12.181l1.11-19.505
							c0.408-7.155,7.02-12.216,14.061-10.88c15.66,2.972,34.427,3.969,53.571-0.099c19.873-4.223,33.262-14.111,30.327-27.922
							c-2.648-12.462-15.674-17.438-44.87-18.979c-41.699-2.405-73.645-13.571-81.017-48.265
							c-6.657-31.327,11.167-60.109,49.554-74.953l-4.206-19.795c-1.354-6.37,2.712-12.63,9.081-13.984l11.629-2.471
							c6.37-1.354,12.63,2.713,13.984,9.082l3.776,17.771c19.255-3.293,33.846-2.981,45.699-1.449
							c6.073,0.785,10.454,6.215,10.115,12.329l-1,18.033c-0.386,6.953-6.648,12.049-13.532,10.993
							c-10.971-1.682-26.177-2.629-44.839,1.336c-23.579,5.01-28.239,16.209-26.378,24.967
							c2.291,10.779,18.011,15.183,50.668,18.101c46.58,3.832,68.634,18.155,75.577,50.829c6.37,29.979-10.134,61.649-51.818,77.549
							l4.707,22.15c1.354,6.369-2.712,12.63-9.081,13.983l-11.63,2.471C2264.754,1754.998,2258.493,1750.932,2257.14,1744.563z"/>
					</g>
				</g>
			</g>
			<g>
				<g>
					
						<linearGradient id="SVGID_00000026868985328003261270000016355132605376033183_" gradientUnits="userSpaceOnUse" x1="-239.6707" y1="7220.1294" x2="200.0049" y2="6179.0581" gradientTransform="matrix(0.9416 0.3368 -0.3368 0.9416 -347.836 -41.6063)">
						<stop  offset="0" style="stop-color:#FF928E"/>
						<stop  offset="1" style="stop-color:#FE7062"/>
					</linearGradient>
					<path style="fill:url(#SVGID_00000026868985328003261270000016355132605376033183_);" d="M2159.532,961.029
						c-26.701,84.896-76.656,116.171-117.275,103.397c-41.531-13.059-61.662-67.06-37.761-144.657
						c23.968-76.224,72.153-116.223,117.794-101.872C2169.297,832.681,2182.331,888.529,2159.532,961.029z M1989.97,1233.879
						l303.012-362.3l31.95,10.045l-303.016,362.299L1989.97,1233.879z M2048.173,930.778c-15.069,46.334-13.462,84.291,8.898,91.32
						c22.368,7.035,43.447-21.745,58.84-70.695c14.033-44.619,16.209-83.427-7.981-91.034
						C2085.112,853.191,2062.398,885.541,2048.173,930.778z M2311.376,1192.641c-26.499,84.27-76.197,116.309-117.274,103.392
						c-41.072-12.916-61.658-67.059-37.105-145.136c23.774-75.597,72.152-116.218,117.335-102.011
						C2321.343,1063.671,2334.18,1120.141,2311.376,1192.641z M2200.027,1162.386c-14.876,45.711-13.471,84.289,8.894,91.319
						c22.818,7.177,43.452-21.744,58.844-70.695c14.225-45.236,16.204-83.428-7.981-91.033
						C2236.962,1084.799,2214.251,1117.154,2200.027,1162.386z"/>
				</g>
			</g>
		</g>
		<g>
			
				<linearGradient id="SVGID_00000096759743330865857460000005788713928308148614_" gradientUnits="userSpaceOnUse" x1="637.997" y1="-1096.3657" x2="577.3508" y2="-621.3033" gradientTransform="matrix(-1 0 0 1 2693.9792 0)">
				<stop  offset="0" style="stop-color:#09005D"/>
				<stop  offset="1" style="stop-color:#1A0F91"/>
			</linearGradient>
			<path style="fill:url(#SVGID_00000096759743330865857460000005788713928308148614_);" d="M2670.664,3120.321
				c0,0,4.451,25.199,6.634,50.144c0.853,9.749-6.663,18.214-16.441,18.621c-33.219,1.383-104.276,4.074-129.773,2.936
				c-3.833-0.171-6.339-4.095-4.92-7.66c1.189-2.987,3.481-5.402,6.403-6.745l117.373-53.944L2670.664,3120.321z"/>
			
				<linearGradient id="SVGID_00000120556229597261063490000004023263345607088784_" gradientUnits="userSpaceOnUse" x1="19.6688" y1="3120.2168" x2="57.8472" y2="3120.2168" gradientTransform="matrix(-1 0 0 1 2693.9792 0)">
				<stop  offset="0" style="stop-color:#FEBBBA"/>
				<stop  offset="1" style="stop-color:#FF928E"/>
			</linearGradient>
			<path style="fill:url(#SVGID_00000120556229597261063490000004023263345607088784_);" d="M2674.31,3105.514l-3.576,30.142
				c0,0-20.561,9.571-34.602-1.207l8.515-33.59L2674.31,3105.514z"/>
			
				<linearGradient id="SVGID_00000160912289311659889560000017243703214603872157_" gradientUnits="userSpaceOnUse" x1="4553.7739" y1="-7890.8242" x2="4265.7026" y2="-7213.6045" gradientTransform="matrix(-1 0 0 1 2693.9792 0)">
				<stop  offset="0" style="stop-color:#4F52FF"/>
				<stop  offset="1" style="stop-color:#4042E2"/>
			</linearGradient>
			<path style="fill:url(#SVGID_00000160912289311659889560000017243703214603872157_);" d="M2671.622,2538.839
				c1.545,7.872,8.292,392.799-32.854,565.298c-0.671,2.815,0.756,5.716,3.435,6.811c6.311,2.579,18.683,6.312,33.51,6.81
				c4.592,0.154,8.708-2.831,10.004-7.238c11.762-40.022,68.12-240.546,75.472-432.101c8.215-214.043,0-7.288,0-7.288
				l-4.818-132.309L2671.622,2538.839z"/>
			
				<linearGradient id="SVGID_00000080903319416807444170000005129411303816010674_" gradientUnits="userSpaceOnUse" x1="454.1009" y1="-1119.8401" x2="393.4547" y2="-644.778" gradientTransform="matrix(-1 0 0 1 2693.9792 0)">
				<stop  offset="0" style="stop-color:#09005D"/>
				<stop  offset="1" style="stop-color:#1A0F91"/>
			</linearGradient>
			<path style="fill:url(#SVGID_00000080903319416807444170000005129411303816010674_);" d="M2805.681,3133.467
				c0,0,7.085,12.722,13.945,46.526c1.239,6.105-3.027,11.948-9.226,12.557c-10.969,1.079-27.855,2.465-41.382,2.372
				c-6.235-0.043-11.102-5.472-10.35-11.662c1.498-12.339,6.166-32.583,20.585-48.362L2805.681,3133.467z"/>
			
				<linearGradient id="SVGID_00000050641476228072615890000000997118414025134733_" gradientUnits="userSpaceOnUse" x1="-117.9251" y1="3118.2588" x2="-84.9616" y2="3118.2588" gradientTransform="matrix(-1 0 0 1 2693.9792 0)">
				<stop  offset="0" style="stop-color:#FEBBBA"/>
				<stop  offset="1" style="stop-color:#FF928E"/>
			</linearGradient>
			<path style="fill:url(#SVGID_00000050641476228072615890000000997118414025134733_);" d="M2811.904,3094.698l-8.356,45.583
				c0,0-8.262,6.145-24.607,1.69l3.989-49.044L2811.904,3094.698z"/>
			
				<linearGradient id="SVGID_00000084506350053843533900000016282963045773222533_" gradientUnits="userSpaceOnUse" x1="4466.3604" y1="-7928.0234" x2="4178.2905" y2="-7250.8071" gradientTransform="matrix(-1 0 0 1 2693.9792 0)">
				<stop  offset="0" style="stop-color:#4F52FF"/>
				<stop  offset="1" style="stop-color:#4042E2"/>
			</linearGradient>
			<path style="fill:url(#SVGID_00000084506350053843533900000016282963045773222533_);" d="M2834.479,2550.652
				c33.652,203.091-7.3,501.956-21.111,560.451c-0.846,3.581-3.736,6.325-7.365,6.927c-6.165,1.022-16.315,1.856-26.321-1.051
				c-3.447-1.001-5.87-4.111-6.01-7.698c-1.853-47.292,1.482-337.616-29.874-452.354c-1.589-5.815-5.14-10.885-10.053-14.378
				l-60.859-43.266l-4.666-69.936L2834.479,2550.652z"/>
			<g>
				
					<linearGradient id="SVGID_00000101062790225483304700000001870385646644733086_" gradientUnits="userSpaceOnUse" x1="-204.4167" y1="2480.4658" x2="396.3206" y2="2048.1353" gradientTransform="matrix(-1 0 0 1 2693.9792 0)">
					<stop  offset="0" style="stop-color:#4F52FF"/>
					<stop  offset="1" style="stop-color:#4042E2"/>
				</linearGradient>
				<path style="fill:url(#SVGID_00000101062790225483304700000001870385646644733086_);" d="M2620.049,2165.833
					c100.848-1.666,212.123,26.48,212.123,26.48c30.061,175.404,5.256,377.719,5.256,377.719
					c-78.074,20.475-166.146-12.518-166.146-12.518c-12.977-73.314-73.521-279.646-73.521-279.646
					c-49.275-6.116-89.865-20.332-123.293-39.127c25.498-29.556,37.518-67.164,42.739-89.395
					C2552.863,2160.428,2588.944,2166.347,2620.049,2165.833z"/>
				
					<linearGradient id="SVGID_00000077292733093263362040000013416532360899852207_" gradientUnits="userSpaceOnUse" x1="176.7721" y1="2124.1934" x2="371.818" y2="2124.1934" gradientTransform="matrix(-1 0 0 1 2693.9792 0)">
					<stop  offset="0" style="stop-color:#FEBBBA"/>
					<stop  offset="1" style="stop-color:#FF928E"/>
				</linearGradient>
				<path style="fill:url(#SVGID_00000077292733093263362040000013416532360899852207_);" d="M2322.161,2017.289
					c9.907-11.966,22.445-6.305,22.445-6.305c14.841,62.689,92.656,113.518,172.601,138.363
					c-5.221,22.231-17.241,59.839-42.739,89.395C2341.793,2164.143,2322.161,2017.289,2322.161,2017.289z"/>
			</g>
			<g>
				
					<linearGradient id="SVGID_00000111177233772796542920000008887385133128987574_" gradientUnits="userSpaceOnUse" x1="10119.4102" y1="2091.4993" x2="10250.291" y2="2389.2825" gradientTransform="matrix(1 0 0 1 -7753.7988 0)">
					<stop  offset="0" style="stop-color:#FEBBBA"/>
					<stop  offset="1" style="stop-color:#FF928E"/>
				</linearGradient>
				<path style="fill:url(#SVGID_00000111177233772796542920000008887385133128987574_);" d="M2324.566,2020.332
					c-1.036,3.295,10.968,8.313,18.035-5.165c0.247-6.459,4.176-34.133,0.316-39.395c-20.558-28.027-60.414-63.159-60.414-63.159
					c-6.736,6.647-1.186,13.176-1.186,13.176l19.334,20.142c-4.044,7.308-8.977,13.477-11.288,22.317
					c-1.751,6.694-0.68,13.848,2.701,19.941c3.394,6.115,8.024,14.063,12.401,20.283
					C2312.751,2020.243,2324.566,2020.332,2324.566,2020.332z"/>
				
					<linearGradient id="SVGID_00000182489080747074963240000009818915797573425589_" gradientUnits="userSpaceOnUse" x1="370.8817" y1="1992.3268" x2="425.4926" y2="1908.3624" gradientTransform="matrix(-1 0 0 1 2693.9792 0)">
					<stop  offset="0" style="stop-color:#FEBBBA"/>
					<stop  offset="1" style="stop-color:#FF928E"/>
				</linearGradient>
				<path style="fill:url(#SVGID_00000182489080747074963240000009818915797573425589_);" d="M2309.108,1958.999l17.619,14.936
					l5.532,14.871l-15.709,17.427c0,0-5.282-29.506-9.208-35.893C2303.417,1963.954,2305.452,1960.866,2309.108,1958.999z"/>
			</g>
			
				<linearGradient id="SVGID_00000056406349712605309380000007712148676622472579_" gradientUnits="userSpaceOnUse" x1="-283.5777" y1="2370.4695" x2="317.1584" y2="1938.1399" gradientTransform="matrix(-1 0 0 1 2693.9792 0)">
				<stop  offset="0" style="stop-color:#4F52FF"/>
				<stop  offset="1" style="stop-color:#4042E2"/>
			</linearGradient>
			<path style="fill:url(#SVGID_00000056406349712605309380000007712148676622472579_);" d="M2793.49,2289.963l38.681-97.65
				c0,0,94.197,64.003,109.689,145.153c-17.799,1.311-50.186,5.94-81.888,21.947
				C2853.007,2321.095,2793.49,2289.963,2793.49,2289.963z"/>
			
				<linearGradient id="SVGID_00000160906085665970337330000007934248430943999402_" gradientUnits="userSpaceOnUse" x1="-250.0286" y1="2400.4707" x2="-3.1963" y2="2400.4707" gradientTransform="matrix(-1 0 0 1 2693.9792 0)">
				<stop  offset="0" style="stop-color:#FEBBBA"/>
				<stop  offset="1" style="stop-color:#FF928E"/>
			</linearGradient>
			<path style="fill:url(#SVGID_00000160906085665970337330000007934248430943999402_);" d="M2711.172,2381.849
				c0,0,105.76,59.771,141.446,8.734c7.409-10.598,9.18-21.129,7.355-31.17c31.701-16.007,64.089-20.636,81.888-21.947
				c4.671,24.463,2.202,50.482-12.174,76.779c-62.508,114.345-232.511-6.319-232.511-6.319L2711.172,2381.849z"/>
			<g>
				
					<linearGradient id="SVGID_00000034803104167201216510000014674167638816311990_" gradientUnits="userSpaceOnUse" x1="2805.4871" y1="1969.1415" x2="2674.0803" y2="2204.999">
					<stop  offset="0" style="stop-color:#09005D"/>
					<stop  offset="1" style="stop-color:#1A0F91"/>
				</linearGradient>
				<path style="fill:url(#SVGID_00000034803104167201216510000014674167638816311990_);" d="M2723.879,2457.465l-57.72-201.571
					c-0.656-2.288-2.607-3.957-4.972-4.233c-10.458-1.22-40.761-4.646-75.749-7.605c-42.144-3.565-91.085-6.453-120.331-3.996
					c-4.158,0.349-6.67,4.747-4.821,8.487c16.631,33.647,85.04,170.513,119.297,215.348c1.135,1.486,2.89,2.354,4.76,2.337
					l133.92-1.246C2722.161,2464.95,2724.952,2461.212,2723.879,2457.465z"/>
				<path style="fill:#7D97F4;" d="M2579.452,2226.581l-41.848-6.973c-2.229-0.372-4.054,1.758-3.346,3.904l4.143,12.553
					c0.361,1.093,1.314,1.884,2.455,2.036l40.27,5.379c2.084,0.278,3.801-1.615,3.322-3.661l-2.564-10.959
					C2581.607,2227.679,2580.648,2226.78,2579.452,2226.581z"/>
				<path style="fill:#7D97F4;" d="M2610.787,2262.009l-3.448-17.957c-0.346-1.801-1.833-3.162-3.657-3.347l-84.524-8.577
					c-2.845-0.289-5.123,2.318-4.455,5.099l5.374,22.376c0.43,1.79,1.988,3.084,3.828,3.176l82.596,4.158
					C2609.19,2267.072,2611.294,2264.652,2610.787,2262.009z"/>
				
					<linearGradient id="SVGID_00000034809206631132879790000016537214959640735167_" gradientUnits="userSpaceOnUse" x1="-21.5226" y1="2374.5903" x2="55.3756" y2="2374.5903" gradientTransform="matrix(-1 0 0 1 2693.9792 0)">
					<stop  offset="0" style="stop-color:#FEBBBA"/>
					<stop  offset="1" style="stop-color:#FF928E"/>
				</linearGradient>
				<path style="fill:url(#SVGID_00000034809206631132879790000016537214959640735167_);" d="M2709.934,2408.765
					c0,0,8.041-33.062,4.797-44.792c-3.243-11.73-9.527-26.811-30.473-23.46c-20.946,3.352-45.654,12.175-45.654,12.175
					s1.248,15.278,17.167,10.349l-9.872,7.638c0,0,1.411,12.233,14.858,5.698l-9.182,10.13c0,0,5.775,10.047,15.668,3.603
					C2677.136,2383.663,2681.878,2412.747,2709.934,2408.765z"/>
			</g>
			
				<linearGradient id="SVGID_00000122681931836458008510000003874524275651995014_" gradientUnits="userSpaceOnUse" x1="-60.4959" y1="2136.592" x2="37.0936" y2="2136.592" gradientTransform="matrix(-1 0 0 1 2693.9792 0)">
				<stop  offset="0" style="stop-color:#FEBBBA"/>
				<stop  offset="1" style="stop-color:#FF928E"/>
			</linearGradient>
			<path style="fill:url(#SVGID_00000122681931836458008510000003874524275651995014_);" d="M2722.2,2083.96l32.088,92.797
				c0.531,1.537-0.101,3.24-1.524,4.027c-8.747,4.836-40.26,18.815-78.237-5.263c-3.956-2.508-6.649-6.599-7.25-11.245
				l-10.391-80.316H2722.2z"/>
			<g>
				
					<linearGradient id="SVGID_00000121994040228397136900000000762312757930933427_" gradientUnits="userSpaceOnUse" x1="-5695.855" y1="-1226.7964" x2="-5732.3232" y2="-1347.0767" gradientTransform="matrix(-0.746 -0.6659 -0.6659 0.746 -2432.3562 -803.1727)">
					<stop  offset="0" style="stop-color:#FEBBBA"/>
					<stop  offset="1" style="stop-color:#FF928E"/>
				</linearGradient>
				<path style="fill:url(#SVGID_00000121994040228397136900000000762312757930933427_);" d="M2652.38,1998.027
					c0,0-35.236,66.328-30.719,93.122c4.517,26.793,48.187,24.87,86.321,3.109l26.647-71.62L2652.38,1998.027z"/>
				
					<linearGradient id="SVGID_00000021090931431878731610000001829065846079004054_" gradientUnits="userSpaceOnUse" x1="-5728.7563" y1="-1436.3666" x2="-5698.251" y2="-1262.3738" gradientTransform="matrix(-0.746 -0.6659 -0.6659 0.746 -2432.3562 -803.1727)">
					<stop  offset="0" style="stop-color:#09005D"/>
					<stop  offset="1" style="stop-color:#1A0F91"/>
				</linearGradient>
				<path style="fill:url(#SVGID_00000021090931431878731610000001829065846079004054_);" d="M2706.296,2059.085
					c-1.55-0.686-2.122-2.583-1.193-4.001c2.823-4.313,8.115-13.111,9.803-20.814c0,0,6.335-4.057-16.122-9.432
					c-22.457-5.375-55.946-13.719-62.985-32.833c-6.863-18.637,11.169-65.504,39.937-28.161c1.094,1.421,3.239,1.452,4.332,0.03
					c4.716-6.138,17.115-18.879,34.329-11.155c16.109,7.228,17.924,19.032,17.702,24.982c-0.065,1.751,1.5,3.111,3.22,2.783
					c8.145-1.553,27.689-2.888,36.812,17.163c7.514,16.514,2.63,25.863-1.818,30.435c-1.441,1.481-0.81,3.92,1.166,4.525
					c5.353,1.638,12.265,6.177,11.573,18.718c-0.957,17.337-20.341,15.81-25.86,15.019c-0.904-0.13-1.815,0.181-2.427,0.858
					c-4.732,5.237-26.052,27.472-49.127,30.152c-1.999,0.232-3.547-1.741-2.892-3.644l9.986-29.028
					c0.464-1.348-0.181-2.827-1.485-3.405L2706.296,2059.085z"/>
				
					<linearGradient id="SVGID_00000102531720632182844140000008434970744517191299_" gradientUnits="userSpaceOnUse" x1="-5733.1338" y1="-1227.3558" x2="-5765.9453" y2="-1335.5748" gradientTransform="matrix(-0.746 -0.6659 -0.6659 0.746 -2432.3562 -803.1727)">
					<stop  offset="0" style="stop-color:#FEBBBA"/>
					<stop  offset="1" style="stop-color:#FF928E"/>
				</linearGradient>
				<path style="fill:url(#SVGID_00000102531720632182844140000008434970744517191299_);" d="M2702.281,2063.206
					c0,0,25.089-17.213,26.922-2.717c1.833,14.495-22.593,20.996-34.691,15.592L2702.281,2063.206z"/>
			</g>
		</g>
	</g>
</g>
</svg>
